<?xml version="1.0" encoding="utf-8"?>
<!-- Generator: Adobe Illustrator 28.0.0, SVG Export Plug-In . SVG Version: 6.00 Build 0)  -->
<svg version="1.1" id="레이어_1" xmlns="http://www.w3.org/2000/svg" xmlns:xlink="http://www.w3.org/1999/xlink" x="0px"
	 y="0px" viewBox="0 0 1920.36 426.08" style="enable-background:new 0 0 1920.36 426.08;" xml:space="preserve">
<style type="text/css">
	.st0{clip-path:url(#SVGID_00000159455122920961648650000012107199743390918578_);}
	.st1{clip-path:url(#SVGID_00000063604351923802509680000004405333892364806280_);}
	
		.st2{clip-path:url(#SVGID_00000113336979721644857880000016850863521762009760_);fill:url(#SVGID_00000098914715611783645960000010107363057637619364_);}
	.st3{clip-path:url(#SVGID_00000115498216458333415370000001779171247334508980_);fill:#E6E6E6;}
	.st4{clip-path:url(#SVGID_00000115498216458333415370000001779171247334508980_);fill:#656363;}
	.st5{clip-path:url(#SVGID_00000115498216458333415370000001779171247334508980_);fill:#FFFFFF;}
	.st6{clip-path:url(#SVGID_00000115498216458333415370000001779171247334508980_);}
	.st7{clip-path:url(#SVGID_00000153706894904163204360000001609163632168529326_);fill:#FFFFFF;}
	.st8{clip-path:url(#SVGID_00000178884758324561196140000014646776678387892904_);fill:#FFFFFF;}
	.st9{clip-path:url(#SVGID_00000180345098417003676860000012436559171539317932_);fill:#FFFFFF;}
	.st10{clip-path:url(#SVGID_00000018202527253422229850000014524926435308809371_);fill:#16967F;}
	.st11{clip-path:url(#SVGID_00000015339781239920581190000001610166323729792928_);fill:#BCD05E;}
	.st12{clip-path:url(#SVGID_00000029041874044265287790000004554320577866617772_);fill:#C65990;}
	.st13{clip-path:url(#SVGID_00000119836145745844171440000007405346893794296750_);fill:#717071;}
	
		.st14{clip-path:url(#SVGID_00000018935694981825586080000014022565101292741546_);fill:url(#SVGID_00000006678230967140313360000006095716692275894659_);}
	
		.st15{clip-path:url(#SVGID_00000055686974805590828060000013677054045518099385_);fill:url(#SVGID_00000121251062961762066960000011593019534362917512_);}
	
		.st16{clip-path:url(#SVGID_00000174604088687033432120000008625234687212600704_);fill:url(#SVGID_00000092422490774544467070000005297380187854171018_);}
	
		.st17{clip-path:url(#SVGID_00000112623448487161827580000012033037609554735027_);fill:url(#SVGID_00000171686874626640933160000014629511850933773204_);}
	
		.st18{clip-path:url(#SVGID_00000088118872757846044510000011498503486787716538_);fill:url(#SVGID_00000098218149920829017960000009026124663732286081_);}
	
		.st19{clip-path:url(#SVGID_00000054247208066716840630000004614348585376959412_);fill:url(#SVGID_00000070093884344745985960000014222719365477467540_);}
	.st20{clip-path:url(#SVGID_00000170275876226867084530000004262385835528861355_);}
	.st21{clip-path:url(#SVGID_00000035510018732824277140000016636296088927421374_);fill:#4D4948;}
</style>
<g>
	<g id="아트웍_3_1_">
		<g>
			<defs>
				<rect id="SVGID_1_" x="0" y="0" width="341.77" height="426.08"/>
			</defs>
			<clipPath id="SVGID_00000168115086792922983820000007843009874676553123_">
				<use xlink:href="#SVGID_1_"  style="overflow:visible;"/>
			</clipPath>
			<g style="clip-path:url(#SVGID_00000168115086792922983820000007843009874676553123_);">
				<defs>
					<rect id="SVGID_00000042007967205305064430000003915550194934248064_" x="0" y="0" width="341.77" height="426.08"/>
				</defs>
				<clipPath id="SVGID_00000088838353258390635140000007833220764691673767_">
					<use xlink:href="#SVGID_00000042007967205305064430000003915550194934248064_"  style="overflow:visible;"/>
				</clipPath>
				<g style="clip-path:url(#SVGID_00000088838353258390635140000007833220764691673767_);">
					<defs>
						<path id="SVGID_00000005231879219392167040000006444840915737382060_" d="M0,0v275.76c0,38.23,4.51,83.93,87.3,117.12
							c82.78,33.2,83.6,33.2,83.6,33.2s0.8,0,83.58-33.2c82.8-33.19,87.29-78.89,87.29-117.12V0H0z"/>
					</defs>
					<clipPath id="SVGID_00000018209665781789026530000015303746236698999692_">
						<use xlink:href="#SVGID_00000005231879219392167040000006444840915737382060_"  style="overflow:visible;"/>
					</clipPath>
					
						<radialGradient id="SVGID_00000152951090758252270230000007683353385870826382_" cx="529.4927" cy="-670.6702" r="1.5866" gradientTransform="matrix(121.7002 0 0 -121.727 -64268.4648 -81425.6328)" gradientUnits="userSpaceOnUse">
						<stop  offset="0" style="stop-color:#179680"/>
						<stop  offset="0.4111" style="stop-color:#158F7D"/>
						<stop  offset="1" style="stop-color:#0E7C74"/>
					</radialGradient>
					
						<rect x="0" y="0" style="clip-path:url(#SVGID_00000018209665781789026530000015303746236698999692_);fill:url(#SVGID_00000152951090758252270230000007683353385870826382_);" width="341.77" height="426.08"/>
				</g>
				<g style="clip-path:url(#SVGID_00000088838353258390635140000007833220764691673767_);">
					<defs>
						<rect id="SVGID_00000019643136748832055700000012506522192209733790_" x="0" y="0" width="341.77" height="426.08"/>
					</defs>
					<clipPath id="SVGID_00000116931423253566882720000015342675690552038310_">
						<use xlink:href="#SVGID_00000019643136748832055700000012506522192209733790_"  style="overflow:visible;"/>
					</clipPath>
					<path style="clip-path:url(#SVGID_00000116931423253566882720000015342675690552038310_);fill:#E6E6E6;" d="M14,18.35v250.41
						c0,34.88,4.11,76.67,79.71,106.94c75.58,30.32,76.32,30.32,76.32,30.32s0.72,0,76.35-30.32
						c75.57-30.27,79.66-72.05,79.66-106.94V18.35H14z M241.28,366.69c-69.93,28.66-70.6,28.66-70.6,28.66s-0.67,0-70.58-28.66
						c-69.94-28.64-73.73-68.08-73.73-101.05v-97.67h82.38v-42.55H26.37V30.26h288.67v95.17H161.27v42.55h153.77v97.67
						C315.04,298.61,311.22,338.05,241.28,366.69"/>
					<path style="clip-path:url(#SVGID_00000116931423253566882720000015342675690552038310_);fill:#656363;" d="M15.71,20.06V270.5
						c0,34.85,4.11,76.63,79.71,106.91c75.58,30.32,76.32,30.32,76.32,30.32s0.75,0,76.34-30.32
						c75.6-30.27,79.68-72.06,79.68-106.91V20.06H15.71z M243.01,368.42c-69.93,28.64-70.61,28.64-70.61,28.64s-0.69,0-70.58-28.64
						c-69.93-28.66-73.73-68.1-73.73-101.05v-97.67h82.37v-42.57H28.09V31.97h288.67v95.17H162.99v42.57h153.76v97.67
						C316.75,300.32,312.95,339.77,243.01,368.42"/>
					<path style="clip-path:url(#SVGID_00000116931423253566882720000015342675690552038310_);fill:#FFFFFF;" d="M14.9,19.23v250.42
						c0,34.87,4.09,76.63,79.69,106.94c75.58,30.3,76.32,30.3,76.32,30.3s0.75,0,76.34-30.3c75.6-30.31,79.69-72.07,79.69-106.94
						V19.23H14.9z M242.18,367.59c-69.91,28.64-70.6,28.64-70.6,28.64s-0.69,0-70.61-28.64c-69.91-28.62-73.71-68.1-73.71-101.06
						v-97.65h82.38v-42.57H27.26V31.14h288.65v95.17H162.15v42.57h153.75v97.65C315.91,299.49,312.1,338.97,242.18,367.59"/>
					<path style="clip-path:url(#SVGID_00000116931423253566882720000015342675690552038310_);fill:#FFFFFF;" d="M202.47,182.58
						c-1.26-0.13-3.3-0.35-5.03-0.58c-0.02-0.98-0.02-1.98-0.02-2.71V51.05l-13.7,3.68C104.94,75.96,56.67,81.79,56.67,81.79
						l-8.96,1.57v25.85c0,0,13.45,0.77,16.26,0.95v69.14c0,0.72,0,1.73-0.02,2.71c-1.73,0.22-3.76,0.45-5.03,0.58l-9.75,0.99v27.87
						h163.03v-27.87L202.47,182.58z"/>
					<g style="clip-path:url(#SVGID_00000116931423253566882720000015342675690552038310_);">
						<g>
							<defs>
								<rect id="SVGID_00000049182990102385923060000014908195914017526435_" x="58.57" y="82.86" width="60.14" height="117.73"/>
							</defs>
							<clipPath id="SVGID_00000147196720306860174080000003312328675249515666_">
								<use xlink:href="#SVGID_00000049182990102385923060000014908195914017526435_"  style="overflow:visible;"/>
							</clipPath>
							<path style="clip-path:url(#SVGID_00000147196720306860174080000003312328675249515666_);fill:#FFFFFF;" d="M58.57,92.48
								c13.69-2.42,30.91-5.75,45.35-9.62v96.44c0,12.04,0.35,12.6,14.8,14.07v7.22H60.04v-7.22c14.44-1.47,14.81-2.03,14.81-14.07
								v-70.53c0-7.76-0.74-8.89-6.67-9.25l-9.61-0.54V92.48z"/>
						</g>
					</g>
					<g style="clip-path:url(#SVGID_00000116931423253566882720000015342675690552038310_);">
						<g>
							<defs>
								
									<rect id="SVGID_00000026150960771804090010000004663895663118085527_" x="141.22" y="65.22" width="60.14" height="135.37"/>
							</defs>
							<clipPath id="SVGID_00000170974573602610491180000017314830987182141064_">
								<use xlink:href="#SVGID_00000026150960771804090010000004663895663118085527_"  style="overflow:visible;"/>
							</clipPath>
							<path style="clip-path:url(#SVGID_00000170974573602610491180000017314830987182141064_);fill:#FFFFFF;" d="M141.22,74.86
								c13.69-2.42,30.91-5.75,45.34-9.64V179.3c0,12.04,0.37,12.6,14.81,14.07v7.22h-58.67v-7.22
								c14.45-1.47,14.82-2.03,14.82-14.07V91.14c0-7.76-0.74-8.89-6.67-9.25l-9.62-0.56V74.86z"/>
						</g>
					</g>
					<g style="clip-path:url(#SVGID_00000116931423253566882720000015342675690552038310_);">
						<g>
							<defs>
								<rect id="SVGID_00000097502851434143026880000010648514792375583898_" x="74.85" y="93.01" width="111.71" height="85.69"/>
							</defs>
							<clipPath id="SVGID_00000145047658174956028950000016168640876638045067_">
								<use xlink:href="#SVGID_00000097502851434143026880000010648514792375583898_"  style="overflow:visible;"/>
							</clipPath>
							<path style="clip-path:url(#SVGID_00000145047658174956028950000016168640876638045067_);fill:#FFFFFF;" d="M186.56,93.01
								c0,0-39.45,53.36-111.71,53.36v32.34c0,0,70.93-7.4,111.71-73.35V93.01z"/>
						</g>
					</g>
					<path style="clip-path:url(#SVGID_00000116931423253566882720000015342675690552038310_);fill:#FFFFFF;" d="M202.47,182.58
						c-1.26-0.13-3.3-0.35-5.03-0.58c-0.02-0.98-0.02-1.98-0.02-2.71V51.05l-13.7,3.68C104.94,75.96,56.67,81.79,56.67,81.79
						l-8.96,1.57v25.85c0,0,13.45,0.77,16.26,0.95v69.14c0,0.72,0,1.73-0.02,2.71c-1.73,0.22-3.76,0.45-5.03,0.58l-9.75,0.99v27.87
						h163.03v-27.87L202.47,182.58z"/>
					<g style="clip-path:url(#SVGID_00000116931423253566882720000015342675690552038310_);">
						<g>
							<defs>
								<rect id="SVGID_00000158011577053755017290000006128948475058406826_" x="58.57" y="82.86" width="60.14" height="117.73"/>
							</defs>
							<clipPath id="SVGID_00000152227968305620414590000015626154596388845701_">
								<use xlink:href="#SVGID_00000158011577053755017290000006128948475058406826_"  style="overflow:visible;"/>
							</clipPath>
							<path style="clip-path:url(#SVGID_00000152227968305620414590000015626154596388845701_);fill:#16967F;" d="M58.57,92.48
								c13.69-2.42,30.91-5.75,45.35-9.62v96.44c0,12.04,0.35,12.6,14.8,14.07v7.22H60.04v-7.22c14.44-1.47,14.81-2.03,14.81-14.07
								v-70.53c0-7.76-0.74-8.89-6.67-9.25l-9.61-0.54V92.48z"/>
						</g>
					</g>
					<g style="clip-path:url(#SVGID_00000116931423253566882720000015342675690552038310_);">
						<g>
							<defs>
								
									<rect id="SVGID_00000007394758721126405560000008795109714197091204_" x="141.22" y="65.22" width="60.14" height="135.37"/>
							</defs>
							<clipPath id="SVGID_00000173883787996786894450000012005427079923850636_">
								<use xlink:href="#SVGID_00000007394758721126405560000008795109714197091204_"  style="overflow:visible;"/>
							</clipPath>
							<path style="clip-path:url(#SVGID_00000173883787996786894450000012005427079923850636_);fill:#BCD05E;" d="M141.22,74.86
								c13.69-2.42,30.91-5.75,45.34-9.64V179.3c0,12.04,0.37,12.6,14.81,14.07v7.22h-58.67v-7.22
								c14.45-1.47,14.82-2.03,14.82-14.07V91.14c0-7.76-0.74-8.89-6.67-9.25l-9.62-0.56V74.86z"/>
						</g>
					</g>
					<g style="clip-path:url(#SVGID_00000116931423253566882720000015342675690552038310_);">
						<g>
							<defs>
								<rect id="SVGID_00000013154519838297530730000016665056074494843555_" x="74.85" y="93.01" width="111.71" height="85.69"/>
							</defs>
							<clipPath id="SVGID_00000040546080590149931790000003372434585535835574_">
								<use xlink:href="#SVGID_00000013154519838297530730000016665056074494843555_"  style="overflow:visible;"/>
							</clipPath>
							<path style="clip-path:url(#SVGID_00000040546080590149931790000003372434585535835574_);fill:#C65990;" d="M186.56,93.01
								c0,0-39.45,53.36-111.71,53.36v32.34c0,0,70.93-7.4,111.71-73.35V93.01z"/>
						</g>
					</g>
					<g style="clip-path:url(#SVGID_00000116931423253566882720000015342675690552038310_);">
						<g>
							<defs>
								
									<rect id="SVGID_00000047743579668327980270000001973046095383185026_" x="154.52" y="227.79" width="137.51" height="103.61"/>
							</defs>
							<clipPath id="SVGID_00000013891368775888405600000000197691185275279029_">
								<use xlink:href="#SVGID_00000047743579668327980270000001973046095383185026_"  style="overflow:visible;"/>
							</clipPath>
							<path style="clip-path:url(#SVGID_00000013891368775888405600000000197691185275279029_);fill:#717071;" d="M168.3,234.59
								v-6.8h10.53v6.8h14.06v6.47h-7.37c1.65,1.91,2.98,4.18,3.94,6.8c0.98,2.61,1.49,5.49,1.55,8.6c-0.07,3.06-0.5,5.88-1.35,8.45
								c-0.86,2.59-2.07,4.8-3.62,6.67c-1.56,1.91-3.4,3.4-5.48,4.43c-2.12,1.06-4.46,1.59-7.01,1.59
								c-2.66,0.05-5.06-0.46-7.23-1.55c-2.15-1.07-3.98-2.53-5.48-4.4c-1.55-1.91-2.74-4.15-3.57-6.74
								c-0.83-2.58-1.24-5.39-1.24-8.45c0-3.11,0.49-5.99,1.46-8.6c0.98-2.62,2.29-4.9,3.94-6.8h-6.91v-6.47H168.3z M173.55,241.19
								c-2.11,0-3.87,1.41-5.3,4.19c-1.43,2.8-2.12,6.48-2.07,11.08c-0.05,4.43,0.63,8,2.04,10.68c1.39,2.68,3.14,4.02,5.25,4.02
								c2.12,0,3.87-1.33,5.28-3.99c1.4-2.64,2.12-6.23,2.12-10.71c0-4.84-0.7-8.58-2.09-11.26
								C177.4,242.53,175.65,241.19,173.55,241.19 M209.82,253.95v35.55h-10.15v-61.71h10.15v19.71h9.77v6.45H209.82z"/>
							<path style="clip-path:url(#SVGID_00000013891368775888405600000000197691185275279029_);fill:#717071;" d="M242.69,267.57
								h17.07h3.19c1.02,0,2.03-0.05,3.04-0.14c1.02-0.1,1.99-0.29,2.99-0.53c0.96-0.27,2-0.69,3.11-1.26v-37.84h10.16v19.71h9.78
								v6.45h-9.78v35.55H272.1v-17.43c-1.8,0.79-3.82,1.3-6.07,1.55c-2.22,0.27-4.39,0.4-6.51,0.4h-22.49
								c-2.26,0-4.11-0.88-5.59-2.63c-1.49-1.74-2.23-3.83-2.23-6.26v-34.47h10.17v34.24c0,0.86,0.27,1.52,0.82,1.98
								C240.75,267.34,241.59,267.57,242.69,267.57"/>
							<polygon style="clip-path:url(#SVGID_00000013891368775888405600000000197691185275279029_);fill:#717071;" points="
								192.49,294.67 192.49,330.82 185.06,330.82 185.06,313.42 169.66,313.42 169.66,330.82 162.23,330.82 162.23,294.67 
								169.66,294.67 169.66,308.71 185.06,308.71 185.06,294.67 							"/>
							<path style="clip-path:url(#SVGID_00000013891368775888405600000000197691185275279029_);fill:#717071;" d="M215.81,330.82
								c-0.22-0.13-0.46-0.45-0.74-0.93c-0.27-0.48-0.42-0.96-0.42-1.46c-1.11,1.15-2.39,1.92-3.85,2.34
								c-1.44,0.42-2.87,0.62-4.28,0.62c-2.56,0-4.7-0.75-6.4-2.24c-1.7-1.5-2.53-3.55-2.53-6.13c0-2.37,0.88-4.45,2.66-6.23
								c1.79-1.78,4.39-2.83,7.79-3.17l6.08-0.67c0-2.21-0.53-3.71-1.55-4.53c-1.02-0.8-2.19-1.2-3.49-1.2
								c-1.59,0-3.1,0.34-4.52,1.01c-1.42,0.66-2.73,1.52-3.95,2.54l-1.25-5.22c1.46-0.96,2.98-1.68,4.6-2.16
								c1.6-0.48,3.44-0.72,5.55-0.72c1.3,0,2.66,0.18,4.03,0.51c1.39,0.35,2.65,0.91,3.77,1.71c1.15,0.78,2.1,1.83,2.82,3.12
								c0.72,1.28,1.09,2.88,1.09,4.77v11.25c0,1.07,0.08,2.21,0.27,3.43c0.18,1.2,0.53,2.32,1.07,3.35H215.81z M214.18,317.27
								l-3.64,0.48c-1.7,0.21-3.07,0.75-4.12,1.65c-1.04,0.89-1.57,2.02-1.57,3.36c0,1.2,0.35,2.16,1.06,2.88
								c0.71,0.74,1.55,1.09,2.53,1.09c0.76,0,1.5-0.1,2.19-0.3c0.7-0.21,1.31-0.59,1.82-1.14c0.54-0.54,0.96-1.26,1.26-2.19
								c0.3-0.91,0.47-2.1,0.47-3.54V317.27z"/>
							<path style="clip-path:url(#SVGID_00000013891368775888405600000000197691185275279029_);fill:#717071;" d="M234.68,303.19
								v2.37c0.96-0.93,2.11-1.65,3.43-2.13c1.33-0.51,2.69-0.75,4.1-0.75c3.47,0,6.2,0.96,8.21,2.88c2,1.94,2.99,4.58,2.99,7.91
								v17.35h-7.1v-16.36c0-2.11-0.48-3.81-1.47-5.12c-1.01-1.31-2.39-1.95-4.2-1.95c-1.66,0-3.07,0.64-4.22,1.92
								c-1.12,1.3-1.7,3.07-1.7,5.35v16.17h-7.05v-27.63H234.68z"/>
							<path style="clip-path:url(#SVGID_00000013891368775888405600000000197691185275279029_);fill:#717071;" d="M276.53,330.82
								c-0.22-0.13-0.46-0.45-0.74-0.93c-0.27-0.48-0.4-0.96-0.4-1.46c-1.12,1.15-2.42,1.92-3.85,2.34
								c-1.46,0.42-2.88,0.62-4.27,0.62c-2.58,0-4.71-0.75-6.41-2.24c-1.7-1.5-2.54-3.55-2.54-6.13c0-2.37,0.88-4.45,2.68-6.23
								c1.78-1.78,4.37-2.83,7.77-3.17l6.08-0.67c0-2.21-0.51-3.71-1.55-4.53c-1.02-0.8-2.2-1.2-3.5-1.2
								c-1.58,0-3.09,0.34-4.52,1.01c-1.42,0.66-2.74,1.52-3.94,2.54l-1.24-5.22c1.45-0.96,2.99-1.68,4.59-2.16
								c1.61-0.48,3.47-0.72,5.55-0.72c1.31,0,2.67,0.18,4.04,0.51c1.39,0.35,2.64,0.91,3.79,1.71c1.15,0.78,2.08,1.83,2.8,3.12
								c0.72,1.28,1.09,2.88,1.09,4.77v11.25c0,1.07,0.08,2.21,0.27,3.43c0.18,1.2,0.54,2.32,1.07,3.35H276.53z M274.9,317.27
								l-3.64,0.48c-1.7,0.21-3.06,0.75-4.1,1.65c-1.06,0.89-1.58,2.02-1.58,3.36c0,1.2,0.34,2.16,1.07,2.88
								c0.69,0.74,1.54,1.09,2.51,1.09c0.75,0,1.49-0.1,2.19-0.3c0.71-0.21,1.3-0.59,1.82-1.14c0.53-0.54,0.96-1.26,1.27-2.19
								c0.32-0.91,0.46-2.1,0.46-3.54V317.27z"/>
						</g>
					</g>
				</g>
				<g style="clip-path:url(#SVGID_00000088838353258390635140000007833220764691673767_);">
					<defs>
						<path id="SVGID_00000109019358158542267960000009490956853146951830_" d="M167.09,266.02c-1.41-2.68-2.08-6.24-2.03-10.68
							c-0.05-4.58,0.64-8.28,2.08-11.06c1.43-2.8,3.19-4.21,5.29-4.21c2.12,0,3.85,1.35,5.24,4.02c1.36,2.67,2.07,6.44,2.07,11.25
							c0,4.5-0.71,8.07-2.12,10.71c-1.39,2.66-3.15,3.99-5.26,3.99C170.25,270.03,168.49,268.69,167.09,266.02 M167.17,226.66v6.82
							H153.4v6.45h6.92c-1.66,1.91-2.98,4.18-3.96,6.8c-0.96,2.61-1.46,5.49-1.46,8.6c0,3.06,0.4,5.88,1.25,8.47
							c0.83,2.58,2.01,4.82,3.56,6.72c1.51,1.87,3.34,3.33,5.5,4.4c2.15,1.09,4.56,1.6,7.21,1.55c2.57,0,4.89-0.53,7-1.59
							c2.11-1.04,3.93-2.53,5.5-4.43c1.56-1.87,2.75-4.08,3.61-6.66c0.85-2.59,1.3-5.41,1.35-8.47c-0.05-3.1-0.56-5.99-1.54-8.6
							c-0.98-2.63-2.29-4.9-3.95-6.8h7.37v-6.45H177.7v-6.82H167.17z M198.55,226.66v61.71h10.15v-35.56h9.77v-6.45h-9.77v-19.71
							H198.55z"/>
					</defs>
					<clipPath id="SVGID_00000110453283103157348480000011445049882670935188_">
						<use xlink:href="#SVGID_00000109019358158542267960000009490956853146951830_"  style="overflow:visible;"/>
					</clipPath>
					
						<linearGradient id="SVGID_00000036967665495510131540000017788903946716175253_" gradientUnits="userSpaceOnUse" x1="529.5009" y1="-670.3762" x2="531.0875" y2="-670.3762" gradientTransform="matrix(128.2557 0 0 -128.2557 -67806.2812 -85722.0547)">
						<stop  offset="0" style="stop-color:#C5C5C6"/>
						<stop  offset="0.061" style="stop-color:#D0D0D0"/>
						<stop  offset="0.2236" style="stop-color:#E6E6E7"/>
						<stop  offset="0.3771" style="stop-color:#F4F4F4"/>
						<stop  offset="0.5112" style="stop-color:#F9F9F9"/>
						<stop  offset="0.6343" style="stop-color:#F3F3F3"/>
						<stop  offset="0.8008" style="stop-color:#E2E2E3"/>
						<stop  offset="0.9913" style="stop-color:#C5C6C7"/>
						<stop  offset="1" style="stop-color:#C4C5C6"/>
					</linearGradient>
					
						<rect x="153.4" y="226.66" style="clip-path:url(#SVGID_00000110453283103157348480000011445049882670935188_);fill:url(#SVGID_00000036967665495510131540000017788903946716175253_);" width="65.07" height="61.71"/>
				</g>
				<g style="clip-path:url(#SVGID_00000088838353258390635140000007833220764691673767_);">
					<defs>
						<path id="SVGID_00000032606402204246428570000001663771594286577572_" d="M270.99,226.66v37.85
							c-1.11,0.56-2.15,0.99-3.12,1.26c-0.99,0.26-1.98,0.43-2.99,0.53c-0.99,0.11-2,0.14-3.02,0.14h-3.21h-17.07
							c-1.12,0-1.94-0.22-2.48-0.67c-0.56-0.46-0.82-1.12-0.82-1.97v-34.26h-10.18v34.47c0,2.43,0.75,4.52,2.22,6.26
							c1.48,1.74,3.35,2.63,5.59,2.63h22.51c2.1,0,4.26-0.13,6.49-0.4c2.25-0.26,4.27-0.77,6.08-1.54v17.42h10.15v-35.56h9.78v-6.45
							h-9.78v-19.71H270.99z"/>
					</defs>
					<clipPath id="SVGID_00000014621699805710655840000018274491202615948710_">
						<use xlink:href="#SVGID_00000032606402204246428570000001663771594286577572_"  style="overflow:visible;"/>
					</clipPath>
					
						<linearGradient id="SVGID_00000030462404223757757920000014230457772588644237_" gradientUnits="userSpaceOnUse" x1="529.5015" y1="-670.3748" x2="531.0881" y2="-670.3748" gradientTransform="matrix(128.2796 0 0 -128.2796 -67819.0156 -85737.8516)">
						<stop  offset="0" style="stop-color:#C5C5C6"/>
						<stop  offset="0.061" style="stop-color:#D0D0D0"/>
						<stop  offset="0.2236" style="stop-color:#E6E6E7"/>
						<stop  offset="0.3771" style="stop-color:#F4F4F4"/>
						<stop  offset="0.5112" style="stop-color:#F9F9F9"/>
						<stop  offset="0.6343" style="stop-color:#F3F3F3"/>
						<stop  offset="0.8008" style="stop-color:#E2E2E3"/>
						<stop  offset="0.9913" style="stop-color:#C5C6C7"/>
						<stop  offset="1" style="stop-color:#C4C5C6"/>
					</linearGradient>
					
						<rect x="228.09" y="226.66" style="clip-path:url(#SVGID_00000014621699805710655840000018274491202615948710_);fill:url(#SVGID_00000030462404223757757920000014230457772588644237_);" width="62.83" height="61.71"/>
				</g>
				<g style="clip-path:url(#SVGID_00000088838353258390635140000007833220764691673767_);">
					<defs>
						<polygon id="SVGID_00000040559267964461838500000008569494804722487211_" points="183.94,293.55 183.94,307.6 168.56,307.6 
							168.56,293.55 161.11,293.55 161.11,329.7 168.56,329.7 168.56,312.3 183.94,312.3 183.94,329.7 191.38,329.7 191.38,293.55 
													"/>
					</defs>
					<clipPath id="SVGID_00000174580602584129189810000005919201979014152858_">
						<use xlink:href="#SVGID_00000040559267964461838500000008569494804722487211_"  style="overflow:visible;"/>
					</clipPath>
					
						<linearGradient id="SVGID_00000004531979418508608870000003649319249289373057_" gradientUnits="userSpaceOnUse" x1="529.5037" y1="-670.526" x2="531.0903" y2="-670.526" gradientTransform="matrix(128.353 0 0 -128.353 -67858.1797 -85752.3672)">
						<stop  offset="0" style="stop-color:#C5C5C6"/>
						<stop  offset="0.061" style="stop-color:#D0D0D0"/>
						<stop  offset="0.2236" style="stop-color:#E6E6E7"/>
						<stop  offset="0.3771" style="stop-color:#F4F4F4"/>
						<stop  offset="0.5112" style="stop-color:#F9F9F9"/>
						<stop  offset="0.6343" style="stop-color:#F3F3F3"/>
						<stop  offset="0.8008" style="stop-color:#E2E2E3"/>
						<stop  offset="0.9913" style="stop-color:#C5C6C7"/>
						<stop  offset="1" style="stop-color:#C4C5C6"/>
					</linearGradient>
					
						<rect x="161.11" y="293.55" style="clip-path:url(#SVGID_00000174580602584129189810000005919201979014152858_);fill:url(#SVGID_00000004531979418508608870000003649319249289373057_);" width="30.27" height="36.15"/>
				</g>
				<g style="clip-path:url(#SVGID_00000088838353258390635140000007833220764691673767_);">
					<defs>
						<path id="SVGID_00000116931884864235774450000011112745833047424692_" d="M204.8,324.53c-0.72-0.72-1.06-1.68-1.06-2.88
							c0-1.35,0.53-2.47,1.57-3.36c1.04-0.9,2.42-1.44,4.11-1.65l3.63-0.46v2.27c0,1.46-0.14,2.62-0.45,3.54
							c-0.32,0.91-0.73,1.63-1.28,2.2c-0.51,0.56-1.1,0.93-1.81,1.13c-0.71,0.21-1.45,0.32-2.2,0.32
							C206.33,325.63,205.49,325.25,204.8,324.53 M202.85,302.29c-1.63,0.47-3.15,1.19-4.59,2.15l1.23,5.23
							c1.22-1.04,2.51-1.89,3.95-2.56c1.42-0.67,2.93-1.01,4.53-1.01c1.3,0,2.47,0.4,3.48,1.2c1.04,0.82,1.55,2.32,1.55,4.53
							l-6.08,0.67c-3.4,0.34-5.98,1.41-7.77,3.19c-1.81,1.76-2.68,3.84-2.68,6.21c0,2.58,0.84,4.64,2.54,6.13
							c1.7,1.49,3.83,2.24,6.39,2.24c1.41,0,2.85-0.21,4.3-0.63c1.44-0.4,2.72-1.19,3.84-2.32c0,0.48,0.13,0.96,0.42,1.44
							c0.26,0.48,0.51,0.8,0.73,0.93h6.78c-0.56-1.02-0.91-2.15-1.09-3.35c-0.17-1.22-0.27-2.35-0.27-3.43v-11.25
							c0-1.89-0.36-3.49-1.1-4.77c-0.72-1.3-1.65-2.34-2.8-3.12c-1.14-0.8-2.39-1.36-3.79-1.7c-1.38-0.35-2.72-0.53-4.04-0.53
							C206.3,301.55,204.45,301.79,202.85,302.29"/>
					</defs>
					<clipPath id="SVGID_00000032637501574707259630000001526642903770754239_">
						<use xlink:href="#SVGID_00000116931884864235774450000011112745833047424692_"  style="overflow:visible;"/>
					</clipPath>
					
						<linearGradient id="SVGID_00000099641971925518265890000017944529834746751923_" gradientUnits="userSpaceOnUse" x1="529.5023" y1="-670.5413" x2="531.0889" y2="-670.5413" gradientTransform="matrix(128.308 0 0 -128.308 -67834.2109 -85719.9141)">
						<stop  offset="0" style="stop-color:#C5C5C6"/>
						<stop  offset="0.061" style="stop-color:#D0D0D0"/>
						<stop  offset="0.2236" style="stop-color:#E6E6E7"/>
						<stop  offset="0.3771" style="stop-color:#F4F4F4"/>
						<stop  offset="0.5112" style="stop-color:#F9F9F9"/>
						<stop  offset="0.6343" style="stop-color:#F3F3F3"/>
						<stop  offset="0.8008" style="stop-color:#E2E2E3"/>
						<stop  offset="0.9913" style="stop-color:#C5C6C7"/>
						<stop  offset="1" style="stop-color:#C4C5C6"/>
					</linearGradient>
					
						<rect x="196.47" y="301.55" style="clip-path:url(#SVGID_00000032637501574707259630000001526642903770754239_);fill:url(#SVGID_00000099641971925518265890000017944529834746751923_);" width="25" height="28.72"/>
				</g>
				<g style="clip-path:url(#SVGID_00000088838353258390635140000007833220764691673767_);">
					<defs>
						<path id="SVGID_00000029745249758126939410000007152280626256968845_" d="M237,302.31c-1.33,0.5-2.47,1.22-3.44,2.13v-2.35h-7
							v27.61h7.05v-16.15c0-2.27,0.58-4.06,1.7-5.36c1.15-1.28,2.55-1.92,4.22-1.92c1.81,0,3.2,0.66,4.2,1.95
							c0.99,1.31,1.49,3.01,1.49,5.12v16.36h7.1v-17.35c0-3.35-1.01-5.97-3.01-7.91c-2.01-1.92-4.75-2.88-8.21-2.88
							C239.68,301.55,238.32,301.79,237,302.31"/>
					</defs>
					<clipPath id="SVGID_00000168798188619174683090000012391605639419281819_">
						<use xlink:href="#SVGID_00000029745249758126939410000007152280626256968845_"  style="overflow:visible;"/>
					</clipPath>
					
						<linearGradient id="SVGID_00000160186718917695163410000011209412601890684595_" gradientUnits="userSpaceOnUse" x1="529.5013" y1="-670.5427" x2="531.088" y2="-670.5427" gradientTransform="matrix(128.2717 0 0 -128.2717 -67814.8359 -85696.0469)">
						<stop  offset="0" style="stop-color:#C5C5C6"/>
						<stop  offset="0.061" style="stop-color:#D0D0D0"/>
						<stop  offset="0.2236" style="stop-color:#E6E6E7"/>
						<stop  offset="0.3771" style="stop-color:#F4F4F4"/>
						<stop  offset="0.5112" style="stop-color:#F9F9F9"/>
						<stop  offset="0.6343" style="stop-color:#F3F3F3"/>
						<stop  offset="0.8008" style="stop-color:#E2E2E3"/>
						<stop  offset="0.9913" style="stop-color:#C5C6C7"/>
						<stop  offset="1" style="stop-color:#C4C5C6"/>
					</linearGradient>
					
						<rect x="226.55" y="301.55" style="clip-path:url(#SVGID_00000168798188619174683090000012391605639419281819_);fill:url(#SVGID_00000160186718917695163410000011209412601890684595_);" width="25.76" height="28.14"/>
				</g>
				<g style="clip-path:url(#SVGID_00000088838353258390635140000007833220764691673767_);">
					<defs>
						<path id="SVGID_00000138544210681540658840000008174525484268391836_" d="M265.52,324.53c-0.7-0.72-1.07-1.68-1.07-2.88
							c0-1.35,0.53-2.47,1.59-3.36c1.05-0.9,2.42-1.44,4.12-1.65l3.64-0.46v2.27c0,1.46-0.16,2.62-0.46,3.54
							c-0.3,0.91-0.74,1.63-1.28,2.2c-0.5,0.56-1.11,0.93-1.82,1.13c-0.7,0.21-1.44,0.32-2.19,0.32
							C267.06,325.63,266.22,325.25,265.52,324.53 M263.56,302.29c-1.6,0.47-3.14,1.19-4.59,2.15l1.25,5.23
							c1.19-1.04,2.51-1.89,3.93-2.56c1.42-0.67,2.94-1.01,4.52-1.01c1.31,0,2.47,0.4,3.51,1.2c1.02,0.82,1.54,2.32,1.54,4.53
							l-6.08,0.67c-3.39,0.34-5.99,1.41-7.78,3.19c-1.79,1.76-2.67,3.84-2.67,6.21c0,2.58,0.83,4.64,2.53,6.13
							c1.72,1.49,3.83,2.24,6.4,2.24c1.42,0,2.86-0.21,4.3-0.63c1.45-0.4,2.73-1.19,3.85-2.32c0,0.48,0.13,0.96,0.4,1.44
							c0.27,0.48,0.51,0.8,0.74,0.93h6.78c-0.54-1.02-0.91-2.15-1.09-3.35c-0.18-1.22-0.27-2.35-0.27-3.43v-11.25
							c0-1.89-0.35-3.49-1.09-4.77c-0.72-1.3-1.65-2.34-2.81-3.12c-1.12-0.8-2.37-1.36-3.78-1.7c-1.38-0.35-2.73-0.53-4.03-0.53
							C267.03,301.55,265.17,301.79,263.56,302.29"/>
					</defs>
					<clipPath id="SVGID_00000165913482905257864860000005246613596586633617_">
						<use xlink:href="#SVGID_00000138544210681540658840000008174525484268391836_"  style="overflow:visible;"/>
					</clipPath>
					
						<linearGradient id="SVGID_00000130635723517107882780000007918709718052108962_" gradientUnits="userSpaceOnUse" x1="529.5015" y1="-670.5433" x2="531.0881" y2="-670.5433" gradientTransform="matrix(128.2751 0 0 -128.2751 -67816.6172 -85698.0938)">
						<stop  offset="0" style="stop-color:#C5C5C6"/>
						<stop  offset="0.061" style="stop-color:#D0D0D0"/>
						<stop  offset="0.2236" style="stop-color:#E6E6E7"/>
						<stop  offset="0.3771" style="stop-color:#F4F4F4"/>
						<stop  offset="0.5112" style="stop-color:#F9F9F9"/>
						<stop  offset="0.6343" style="stop-color:#F3F3F3"/>
						<stop  offset="0.8008" style="stop-color:#E2E2E3"/>
						<stop  offset="0.9913" style="stop-color:#C5C6C7"/>
						<stop  offset="1" style="stop-color:#C4C5C6"/>
					</linearGradient>
					
						<rect x="257.2" y="301.55" style="clip-path:url(#SVGID_00000165913482905257864860000005246613596586633617_);fill:url(#SVGID_00000130635723517107882780000007918709718052108962_);" width="24.99" height="28.72"/>
				</g>
			</g>
		</g>
	</g>
	<g id="아트웍_4_1_">
		<g>
			<defs>
				<rect id="SVGID_00000054261058976441016600000015778182464495677074_" x="399.45" y="0" width="1520.91" height="426.08"/>
			</defs>
			<clipPath id="SVGID_00000019659027787412248600000017323829001445505181_">
				<use xlink:href="#SVGID_00000054261058976441016600000015778182464495677074_"  style="overflow:visible;"/>
			</clipPath>
			<g style="clip-path:url(#SVGID_00000019659027787412248600000017323829001445505181_);">
				<defs>
					<rect id="SVGID_00000174590917724933188910000005354134253093774225_" x="399.45" y="0" width="1520.91" height="426.08"/>
				</defs>
				<clipPath id="SVGID_00000140736121660440797030000018257949875594492585_">
					<use xlink:href="#SVGID_00000174590917724933188910000005354134253093774225_"  style="overflow:visible;"/>
				</clipPath>
				<path style="clip-path:url(#SVGID_00000140736121660440797030000018257949875594492585_);fill:#FFFFFF;" d="M451.62,32.8V5.72
					h39.93V32.8h53.33v25.65h-27.96c6.25,7.61,11.26,16.63,14.93,27.12c3.75,10.42,5.7,21.86,5.89,34.21
					c-0.18,12.14-1.9,23.39-5.11,33.63c-3.26,10.24-7.84,19.14-13.76,26.54c-5.84,7.58-12.83,13.48-20.76,17.67
					c-7.98,4.19-16.86,6.24-26.54,6.24c-10.07,0.22-19.2-1.84-27.35-6.11c-8.19-4.25-15.15-10.09-20.83-17.52
					c-5.92-7.64-10.41-16.57-13.54-26.81c-3.12-10.24-4.68-21.49-4.68-33.63c0-12.35,1.84-23.79,5.53-34.21
					c3.71-10.49,8.7-19.51,14.95-27.12h-26.22V32.8H451.62z M471.58,59.03c-7.96,0-14.69,5.56-20.09,16.66
					c-5.44,11.13-8.05,25.83-7.84,44.09c-0.21,17.64,2.37,31.82,7.66,42.49c5.36,10.64,12,15.93,19.96,15.93
					c8,0,14.66-5.26,19.96-15.81c5.35-10.54,7.99-24.76,7.99-42.61c0-19.2-2.61-34.15-7.84-44.79
					C486.18,64.36,479.55,59.03,471.58,59.03 M608.97,109.78v153.99h-38.44V5.72h38.44v78.42h37.08v25.65H608.97z"/>
				<path style="clip-path:url(#SVGID_00000140736121660440797030000018257949875594492585_);fill:#FFFFFF;" d="M715.58,163.99
					h64.75h12.06c3.94,0,7.78-0.22,11.63-0.58c3.78-0.37,7.51-1.1,11.24-2.17c3.7-1.01,7.66-2.69,11.85-4.98V5.72h38.49v78.42h37.04
					v25.65H865.6v153.99h-38.49V181.9c-6.88,3.09-14.53,5.11-22.96,6.14c-8.48,1.07-16.68,1.59-24.67,1.59h-85.23
					c-8.54,0-15.64-3.49-21.28-10.43c-5.6-6.97-8.39-15.22-8.39-24.95V17.12h38.49v136.29c0,3.42,1.07,6.02,3.12,7.83
					C708.32,163.04,711.42,163.99,715.58,163.99"/>
				<path style="clip-path:url(#SVGID_00000140736121660440797030000018257949875594492585_);fill:#FFFFFF;" d="M1072.52,201.04
					c4.56-10.46,7.64-22.04,9.11-34.79c1.53-12.75,2.31-26.05,2.31-39.96V45.61H948.49V19.99h173.96v106.06
					c0,15.59-1.13,29.72-3.27,42.37c-2.2,12.63-5.39,23.48-9.55,32.62h41.03v25.68h-230.9v-25.68h78.95v-98.38h38.78v98.38H1072.52z
					"/>
				<path style="clip-path:url(#SVGID_00000140736121660440797030000018257949875594492585_);fill:#FFFFFF;" d="M1176.3,124.06
					h230.93v25.65h-65.58c6.24,6.45,11.27,14,14.97,22.66c3.72,8.68,5.58,18.04,5.58,28.1c-0.21,10.85-2.26,20.73-6.16,29.65
					c-3.91,8.96-9.07,16.54-15.55,22.81c-6.47,6.27-13.9,11.13-22.35,14.58c-8.46,3.39-17.27,5.14-26.37,5.14
					c-9.71,0-18.82-1.77-27.39-5.32c-8.54-3.48-16.05-8.53-22.5-14.95c-6.43-6.3-11.57-13.85-15.26-22.65
					c-3.73-8.87-5.53-18.59-5.53-29.26c0-9.87,1.78-19.2,5.38-27.92c3.63-8.74,8.54-16.38,14.83-22.84h-65V124.06z M1205.09,8.59
					H1379v25.65h-135.4v32.19c0,3.42,1.04,6.05,3.15,7.86c2.06,1.8,5.28,2.72,9.67,2.72H1379v25.65h-143.98
					c-8.54,0-15.67-3.55-21.37-10.55c-5.68-7.03-8.56-15.41-8.56-25.1V8.59z M1291.78,153.41c-4.01,0-7.92,1.16-11.72,3.42
					c-3.76,2.29-7.21,5.44-10.23,9.41c-3.06,4.19-5.53,9.17-7.4,14.95c-1.93,5.81-2.89,12.23-2.89,19.26
					c-0.18,14.64,3.08,26.05,9.71,34.21c6.65,8.19,14.06,12.29,22.19,12.29c3.84,0,7.69-1.07,11.57-3.15
					c3.9-2.11,7.38-5.17,10.41-9.14c3.04-3.97,5.52-8.84,7.44-14.52c1.9-5.68,2.81-12.26,2.81-19.69c0-14.83-3.33-26.39-9.95-34.64
					C1307.06,157.54,1299.74,153.41,1291.78,153.41"/>
				<path style="clip-path:url(#SVGID_00000140736121660440797030000018257949875594492585_);fill:#FFFFFF;" d="M1477.89,27.12V0
					h39.99v27.12h53.27V52.8h-25.67c4.54,5.11,8.36,11.13,11.27,18.07c2.95,6.94,4.42,14.71,4.42,23.24
					c0,10.09-1.81,19.01-5.43,26.81c-3.61,7.79-8.34,14.37-14.23,19.69c-6.08,5.47-12.85,9.66-20.42,12.41
					c-7.46,2.75-15.21,4.01-23.24,3.82c-8.33,0.18-16.37-1.07-24.06-3.82c-7.69-2.75-14.41-6.94-20.15-12.41
					c-5.87-5.32-10.53-11.9-14.05-19.69c-3.53-7.8-5.31-16.73-5.31-26.81c0-8.38,1.44-16.02,4.3-22.93
					c2.85-6.94,6.73-13.09,11.69-18.38h-24.49V27.12H1477.89z M1635.29,266.62h-38.46v-66.98h-129.72v-25.68h168.18V266.62z
					 M1497.85,54.75c-6.83,0.22-12.67,3.98-17.67,11.28c-4.92,7.31-7.4,16.66-7.4,28.07c0,10.85,2.23,19.78,6.7,26.81
					c4.48,7.03,10.53,10.45,18.13,10.27c3.97,0,7.5-1.07,10.53-3.18c3.06-2.05,5.61-4.8,7.72-8.22c2.08-3.46,3.67-7.4,4.83-11.86
					c1.16-4.47,1.8-9.05,1.99-13.82c-0.18-11.4-2.6-20.76-7.28-28.07C1510.76,58.73,1504.93,54.97,1497.85,54.75 M1635.29,89.82
					v71.29h-38.46V5.72h38.46v58.46h37.07v25.65H1635.29z"/>
				<path style="clip-path:url(#SVGID_00000140736121660440797030000018257949875594492585_);fill:#FFFFFF;" d="M1842.26,201.04
					c4.54-10.46,7.57-22.04,9.13-34.79c1.53-12.75,2.29-26.05,2.29-39.96V45.61h-135.44V19.99h173.93v106.06
					c0,15.59-1.1,29.72-3.3,42.37c-2.18,12.63-5.37,23.48-9.52,32.62h41.01v25.68h-230.9v-25.68h50.46V104.1h37.31v96.95h21.09
					V104.1h37.39v96.95H1842.26z"/>
				<polygon style="clip-path:url(#SVGID_00000140736121660440797030000018257949875594492585_);fill:#FFFFFF;" points="492,310.43
					492,400.37 474.39,400.37 474.39,357.08 437.91,357.08 437.91,400.37 420.3,400.37 420.3,310.43 437.91,310.43 437.91,345.37 
					474.39,345.37 474.39,310.43 				"/>
				<path style="clip-path:url(#SVGID_00000140736121660440797030000018257949875594492585_);fill:#FFFFFF;" d="M547.23,400.37
					c-0.52-0.34-1.07-1.1-1.71-2.29c-0.64-1.19-0.98-2.41-0.98-3.61c-2.68,2.85-5.7,4.77-9.12,5.78c-3.44,1.04-6.81,1.56-10.17,1.56
					c-6.07,0-11.11-1.87-15.17-5.6c-4.01-3.73-6.02-8.81-6.02-15.22c0-5.93,2.11-11.1,6.36-15.5c4.24-4.4,10.38-7.03,18.44-7.89
					l14.4-1.68c0-5.47-1.24-9.23-3.68-11.25c-2.41-2.02-5.2-3.03-8.27-3.03c-3.76,0-7.34,0.86-10.75,2.51
					c-3.36,1.68-6.48,3.79-9.29,6.36l-2.98-12.96c3.44-2.41,7.08-4.22,10.87-5.41c3.84-1.19,8.21-1.8,13.16-1.8
					c3.1,0,6.28,0.43,9.58,1.28c3.31,0.85,6.28,2.29,8.94,4.25c2.72,1.99,4.97,4.55,6.68,7.77c1.71,3.24,2.57,7.18,2.57,11.89v28.04
					c0,2.66,0.22,5.47,0.64,8.47c0.43,3,1.28,5.78,2.57,8.34H547.23z M543.38,366.72l-8.61,1.16c-4.02,0.52-7.29,1.87-9.77,4.1
					c-2.48,2.23-3.73,5.01-3.73,8.38c0,2.99,0.86,5.38,2.51,7.18c1.68,1.8,3.67,2.69,5.96,2.69c1.8,0,3.56-0.25,5.21-0.76
					c1.68-0.52,3.12-1.47,4.31-2.81c1.28-1.38,2.29-3.21,3.03-5.47c0.7-2.26,1.08-5.2,1.08-8.81V366.72z"/>
				<path style="clip-path:url(#SVGID_00000140736121660440797030000018257949875594492585_);fill:#FFFFFF;" d="M591.96,331.62v5.93
					c2.32-2.32,5.04-4.1,8.18-5.35c3.12-1.22,6.36-1.86,9.71-1.86c8.19,0,14.69,2.41,19.46,7.21c4.75,4.8,7.11,11.34,7.11,19.66
					v43.17H619.6v-40.72c0-5.23-1.19-9.48-3.55-12.72c-2.35-3.27-5.66-4.89-9.95-4.89c-3.95,0-7.25,1.59-9.95,4.83
					c-2.72,3.21-4.06,7.64-4.06,13.3v40.2h-16.7v-68.75H591.96z"/>
				<path style="clip-path:url(#SVGID_00000140736121660440797030000018257949875594492585_);fill:#FFFFFF;" d="M691.15,400.37
					c-0.52-0.34-1.07-1.1-1.71-2.29c-0.64-1.19-0.98-2.41-0.98-3.61c-2.68,2.85-5.7,4.77-9.13,5.78c-3.42,1.04-6.8,1.56-10.17,1.56
					c-6.07,0-11.11-1.87-15.15-5.6c-4.02-3.73-6.04-8.81-6.04-15.22c0-5.93,2.11-11.1,6.37-15.5c4.22-4.4,10.37-7.03,18.42-7.89
					l14.4-1.68c0-5.47-1.24-9.23-3.68-11.25c-2.41-2.02-5.2-3.03-8.27-3.03c-3.76,0-7.34,0.86-10.75,2.51
					c-3.36,1.68-6.48,3.79-9.29,6.36l-2.98-12.96c3.44-2.41,7.08-4.22,10.87-5.41c3.84-1.19,8.21-1.8,13.18-1.8
					c3.09,0,6.27,0.43,9.57,1.28c3.31,0.85,6.28,2.29,8.94,4.25c2.72,1.99,4.97,4.55,6.68,7.77c1.71,3.24,2.57,7.18,2.57,11.89
					v28.04c0,2.66,0.22,5.47,0.64,8.47c0.43,3,1.28,5.78,2.57,8.34H691.15z M687.3,366.72l-8.61,1.16c-4.02,0.52-7.29,1.87-9.77,4.1
					c-2.48,2.23-3.73,5.01-3.73,8.38c0,2.99,0.86,5.38,2.51,7.18c1.68,1.8,3.67,2.69,5.96,2.69c1.82,0,3.56-0.25,5.21-0.76
					c1.68-0.52,3.12-1.47,4.31-2.81c1.28-1.38,2.29-3.21,3.03-5.47c0.72-2.26,1.08-5.2,1.08-8.81V366.72z"/>
				<path style="clip-path:url(#SVGID_00000140736121660440797030000018257949875594492585_);fill:#FFFFFF;" d="M800.63,310.43
					l30.98,89.94h-18.25l-7.72-25.04h-29.66l-9.13,25.04h-16.2l34.04-89.94H800.63z M802.19,364.15l-10.16-32.65l-11.94,32.65
					H802.19z"/>
				<path style="clip-path:url(#SVGID_00000140736121660440797030000018257949875594492585_);fill:#FFFFFF;" d="M890.33,383.68
					l2.05,12.32c-3.25,2.23-6.67,3.73-10.29,4.53c-3.57,0.76-6.69,1.13-9.37,1.13c-6.6,0-12.18-1.1-16.7-3.33
					c-4.54-2.23-8.27-5.11-11.18-8.62c-2.81-3.42-4.87-7.21-6.16-11.37c-1.28-4.13-1.93-8.13-1.93-12.01
					c0-4.43,0.76-8.81,2.36-13.09c1.59-4.31,3.93-8.16,7.01-11.59c3.09-3.33,6.93-6.05,11.51-8.16c4.55-2.08,9.86-3.15,15.85-3.15
					c2.83,0,5.77,0.37,8.82,1.1c3.04,0.73,5.91,1.95,8.67,3.67l-2.45,11.83c-2.38-1.81-4.82-3.09-7.2-3.79
					c-2.38-0.73-4.74-1.1-7.06-1.1c-2.4,0-4.82,0.52-7.26,1.53c-2.45,1.04-4.6,2.54-6.5,4.49c-1.95,1.99-3.55,4.43-4.74,7.4
					c-1.19,2.97-1.8,6.42-1.8,10.36c0,3.24,0.45,6.33,1.4,9.23c0.95,2.94,2.32,5.51,4.13,7.71c1.77,2.23,3.93,4.01,6.4,5.29
					c2.48,1.28,5.26,1.93,8.36,1.93c2.41,0,4.92-0.43,7.58-1.28C884.51,387.84,887.33,386.16,890.33,383.68"/>
				<path style="clip-path:url(#SVGID_00000140736121660440797030000018257949875594492585_);fill:#FFFFFF;" d="M943.02,400.37
					c-0.52-0.34-1.1-1.1-1.74-2.29c-0.65-1.19-0.95-2.41-0.95-3.61c-2.68,2.85-5.73,4.77-9.13,5.78c-3.44,1.04-6.83,1.56-10.17,1.56
					c-6.1,0-11.14-1.87-15.16-5.6c-4.04-3.73-6.05-8.81-6.05-15.22c0-5.93,2.14-11.1,6.36-15.5c4.27-4.4,10.38-7.03,18.47-7.89
					l14.38-1.68c0-5.47-1.22-9.23-3.67-11.25c-2.45-2.02-5.2-3.03-8.3-3.03c-3.76,0-7.34,0.86-10.71,2.51
					c-3.39,1.68-6.48,3.79-9.34,6.36l-2.94-12.96c3.44-2.41,7.04-4.22,10.87-5.41c3.81-1.19,8.21-1.8,13.16-1.8
					c3.1,0,6.28,0.43,9.59,1.28c3.28,0.85,6.25,2.29,8.91,4.25c2.75,1.99,5,4.55,6.71,7.77c1.68,3.24,2.54,7.18,2.54,11.89v28.04
					c0,2.66,0.22,5.47,0.65,8.47c0.42,3,1.28,5.78,2.57,8.34H943.02z M939.16,366.72l-8.59,1.16c-4.05,0.52-7.29,1.87-9.77,4.1
					c-2.51,2.23-3.74,5.01-3.74,8.38c0,2.99,0.82,5.38,2.52,7.18c1.65,1.8,3.64,2.69,5.96,2.69c1.81,0,3.51-0.25,5.21-0.76
					c1.65-0.52,3.09-1.47,4.28-2.81c1.28-1.38,2.3-3.21,3.03-5.47c0.73-2.26,1.1-5.2,1.1-8.81V366.72z"/>
				<path style="clip-path:url(#SVGID_00000140736121660440797030000018257949875594492585_);fill:#FFFFFF;" d="M1035.01,306.58
					v93.79h-16.95v-6.02c-2.15,2.48-4.88,4.31-8.21,5.53c-3.33,1.19-6.56,1.77-9.65,1.77c-4.81,0-9.1-0.82-12.91-2.51
					c-3.81-1.65-7.11-4.07-9.83-7.25c-2.66-3.08-4.72-6.84-6.19-11.25c-1.44-4.41-2.17-9.33-2.17-14.71c0-5.23,0.7-10.03,2.11-14.4
					c1.41-4.37,3.47-8.13,6.13-11.31c2.63-3.09,5.84-5.51,9.64-7.28c3.76-1.74,8.04-2.63,12.83-2.63c3.76,0,7.2,0.67,10.23,1.98
					c3.03,1.35,5.71,3,8.02,4.95v-30.69H1035.01z M1018.06,365.83c0-7.37-1.55-13.42-4.63-18.13c-3.09-4.71-6.76-7.06-11.05-7.06
					c-2.29,0-4.43,0.64-6.42,1.98c-1.97,1.31-3.68,3.09-5.15,5.32c-1.44,2.23-2.57,4.89-3.33,7.98c-0.77,3.09-1.13,6.39-1.13,9.91
					c0,7.18,1.5,13.18,4.56,17.92c3.03,4.77,6.87,7.12,11.48,7.12c2.14,0,4.2-0.61,6.13-1.87c1.92-1.22,3.55-2.97,4.92-5.2
					c1.46-2.23,2.6-4.89,3.39-7.98C1017.66,372.77,1018.06,369.41,1018.06,365.83"/>
				<path style="clip-path:url(#SVGID_00000140736121660440797030000018257949875594492585_);fill:#FFFFFF;" d="M1109.41,368.52
					h-45.74c0.09,6.76,1.89,12.11,5.38,15.99c3.53,3.91,7.99,5.87,13.37,5.87c3.87,0,7.44-0.61,10.81-1.8
					c3.35-1.22,6.68-3.18,10.01-5.93l2.7,11.95c-3.86,2.66-7.93,4.49-12.23,5.53c-4.28,1.04-8.56,1.53-12.82,1.53
					c-5.14,0-9.8-0.85-13.96-2.57c-4.16-1.71-7.69-4.16-10.59-7.31c-2.9-3.18-5.14-7-6.68-11.5c-1.56-4.52-2.33-9.51-2.33-14.98
					c0-5.56,0.83-10.52,2.45-14.86c1.64-4.31,3.87-7.98,6.68-10.97c2.81-2.91,6.16-5.17,9.95-6.76c3.82-1.59,7.96-2.38,12.4-2.38
					c4.8,0,9.13,0.82,12.92,2.45c3.83,1.62,7.05,3.91,9.71,6.82c2.66,2.91,4.69,6.36,6.13,10.33c1.41,4.01,2.11,8.32,2.11,12.93
					c0,0.86-0.06,1.8-0.12,2.88C1109.47,366.84,1109.41,367.75,1109.41,368.52 M1064.07,358.49h29.41c0-5.04-1.44-9.26-4.31-12.66
					c-2.84-3.39-6.34-5.08-10.47-5.08c-4.1,0-7.57,1.71-10.35,5.14C1065.57,349.32,1064.16,353.5,1064.07,358.49"/>
				<path style="clip-path:url(#SVGID_00000140736121660440797030000018257949875594492585_);fill:#FFFFFF;" d="M1137.42,331.62
					v5.13c2.15-2.14,4.63-3.73,7.41-4.8c2.78-1.07,5.85-1.62,9.19-1.62c4.43,0,8.21,0.95,11.3,2.85c3.09,1.86,5.66,4.25,7.72,7.06
					c2.23-2.57,5.01-4.86,8.41-6.88c3.38-2.02,7.54-3.03,12.4-3.03c7.87,0,14.24,2.32,19.08,6.94c4.85,4.65,7.26,10.52,7.26,17.61
					v45.49h-16.69v-41.48c0-2.08-0.25-4.1-0.71-6.12c-0.49-2.02-1.19-3.79-2.14-5.35c-1.01-1.53-2.29-2.78-3.82-3.79
					c-1.56-0.98-3.44-1.47-5.67-1.47c-3.08,0-5.9,1.28-8.41,3.85c-2.55,2.57-3.81,6.7-3.81,12.35v42.01h-16.95v-41.48
					c0-4.98-1.04-9.02-3.17-12.11c-2.08-3.06-4.98-4.62-8.65-4.62c-3.62,0-6.62,1.44-9,4.31c-2.38,2.88-3.59,7.09-3.59,12.66v41.24
					h-16.83v-68.75H1137.42z"/>
				<path style="clip-path:url(#SVGID_00000140736121660440797030000018257949875594492585_);fill:#FFFFFF;" d="M1252.81,399.49
					l-25.44-67.87h17.6l16.97,48.33c1.47-3.85,2.93-7.83,4.43-11.89c1.5-4.07,2.96-8.16,4.45-12.26c1.44-4.13,2.94-8.19,4.43-12.23
					c1.5-4,3-8.01,4.55-11.95h15.69l-29.58,75.57c-2.56,6.42-6.56,11.19-12,14.28c-5.45,3.09-11.76,4.61-18.96,4.61h-7.18v-11.43
					h5.01c1.35,0,2.96-0.03,4.8-0.12c1.85-0.09,3.71-0.61,5.58-1.56c1.81-0.85,3.58-2.32,5.29-4.43
					C1250.18,406.46,1251.62,403.43,1252.81,399.49"/>
				<path style="clip-path:url(#SVGID_00000140736121660440797030000018257949875594492585_);fill:#FFFFFF;" d="M1391.46,315.44
					l-4.22,12.32c-3-2.48-6.18-4.22-9.52-5.2c-3.33-0.98-6.21-1.47-8.61-1.47c-3.42,0-6.08,0.86-8.01,2.63
					c-1.92,1.75-2.92,3.95-2.92,6.61c0,1.98,0.49,3.76,1.51,5.35c0.98,1.59,2.26,3.15,3.91,4.68c1.71,1.55,3.61,3.08,5.75,4.65
					c2.15,1.53,4.38,3.12,6.71,4.74c6.16,4.62,10.87,8.9,14.11,12.78c3.28,3.91,4.91,8.68,4.91,14.34c0,3.18-0.67,6.24-1.99,9.2
					c-1.33,2.93-3.28,5.59-5.85,7.88c-2.57,2.33-5.71,4.19-9.46,5.6c-3.7,1.41-7.99,2.11-12.77,2.11c-4.12,0-8.6-0.49-13.5-1.47
					c-4.88-0.98-9.24-2.72-13.1-5.2l3.85-13.12c3,2.32,6.5,4.19,10.47,5.66c3.97,1.47,7.9,2.17,11.75,2.17
					c3.42,0,6.44-1.04,9.07-3.15c2.6-2.08,3.91-5.14,3.91-9.17c0-2.05-0.49-3.98-1.41-5.72c-0.95-1.77-2.14-3.42-3.61-4.95
					c-1.44-1.53-3.1-2.97-4.88-4.31c-1.81-1.32-3.61-2.66-5.41-4.04c-2.38-1.65-4.88-3.33-7.44-5.08c-2.57-1.77-4.92-3.7-7.08-5.87
					c-2.05-2.14-3.76-4.55-5.14-7.31c-1.38-2.75-2.02-5.96-1.93-9.66c0.09-6.42,2.54-11.59,7.4-15.47
					c4.85-3.91,11.47-5.84,19.84-5.84c4.11,0,8.36,0.58,12.74,1.71C1384.91,312.02,1388.55,313.55,1391.46,315.44"/>
				<path style="clip-path:url(#SVGID_00000140736121660440797030000018257949875594492585_);fill:#FFFFFF;" d="M1467.78,368.52
					h-45.74c0.09,6.76,1.9,12.11,5.4,15.99c3.52,3.91,7.98,5.87,13.37,5.87c3.85,0,7.45-0.61,10.81-1.8
					c3.33-1.22,6.67-3.18,10.01-5.93l2.69,11.95c-3.85,2.66-7.94,4.49-12.21,5.53c-4.28,1.04-8.57,1.53-12.82,1.53
					c-5.16,0-9.8-0.85-13.96-2.57c-4.17-1.71-7.69-4.16-10.59-7.31c-2.92-3.18-5.15-7-6.68-11.5c-1.56-4.52-2.33-9.51-2.33-14.98
					c0-5.56,0.83-10.52,2.45-14.86c1.62-4.31,3.85-7.98,6.68-10.97c2.81-2.91,6.14-5.17,9.94-6.76c3.84-1.59,7.97-2.38,12.41-2.38
					c4.8,0,9.11,0.82,12.92,2.45c3.82,1.62,7.03,3.91,9.71,6.82c2.66,2.91,4.68,6.36,6.11,10.33c1.41,4.01,2.11,8.32,2.11,12.93
					c0,0.86-0.06,1.8-0.12,2.88C1467.84,366.84,1467.78,367.75,1467.78,368.52 M1422.44,358.49h29.42c0-5.04-1.44-9.26-4.31-12.66
					c-2.86-3.39-6.34-5.08-10.47-5.08c-4.11,0-7.57,1.71-10.35,5.14C1423.94,349.32,1422.53,353.5,1422.44,358.49"/>
				<path style="clip-path:url(#SVGID_00000140736121660440797030000018257949875594492585_);fill:#FFFFFF;" d="M1477.06,365.95
					c0-5.13,0.85-9.91,2.57-14.28c1.73-4.37,4.05-8.13,7.05-11.31c2.99-3.15,6.56-5.63,10.62-7.4c4.07-1.74,8.46-2.63,13.16-2.63
					c4.63,0,9,0.88,13.1,2.63c4.11,1.77,7.66,4.25,10.65,7.4c3.01,3.18,5.4,6.94,7.14,11.31c1.77,4.37,2.63,9.14,2.63,14.28
					c0,5.32-0.86,10.15-2.63,14.52c-1.74,4.37-4.13,8.13-7.14,11.31c-3,3.09-6.54,5.51-10.65,7.25c-4.1,1.77-8.47,2.63-13.1,2.63
					c-4.71,0-9.1-0.85-13.16-2.63c-4.07-1.74-7.63-4.16-10.62-7.25c-2.99-3.18-5.32-6.94-7.05-11.31
					C1477.91,376.1,1477.06,371.27,1477.06,365.95 M1494.51,365.95c0,7.61,1.56,13.73,4.65,18.31c3.06,4.59,6.83,6.88,11.3,6.88
					c4.39,0,8.15-2.29,11.3-6.88c3.2-4.59,4.78-10.7,4.78-18.31c0-7.55-1.59-13.64-4.78-18.25c-3.15-4.65-6.91-6.94-11.3-6.94
					c-4.46,0-8.24,2.29-11.3,6.94C1496.07,352.31,1494.51,358.4,1494.51,365.95"/>
				<path style="clip-path:url(#SVGID_00000140736121660440797030000018257949875594492585_);fill:#FFFFFF;" d="M1600.52,400.37
					v-5.9c-2.38,2.41-5.14,4.19-8.22,5.41c-3.08,1.19-6.28,1.77-9.61,1.77c-8.24,0-14.73-2.35-19.47-7.12
					c-4.77-4.74-7.14-11.31-7.14-19.72v-43.2h16.84v40.75c0,5.32,1.13,9.57,3.45,12.78c2.33,3.21,5.67,4.83,10.01,4.83
					c3.85,0,7.17-1.62,9.92-4.83c2.72-3.21,4.1-7.64,4.1-13.3v-40.23h16.72v68.75H1600.52z"/>
				
					<rect x="1632.03" y="306.58" style="clip-path:url(#SVGID_00000140736121660440797030000018257949875594492585_);fill:#FFFFFF;" width="16.81" height="93.79"/>
			</g>
		</g>
	</g>
</g>
</svg>
